<svg xmlns="http://www.w3.org/2000/svg" x="0px" y="0px" width="100" height="100" viewBox="0 0 64 64">
    <ellipse cx="32" cy="61" opacity=".3" rx="20.125" ry="3"></ellipse>
    <path fill="#ffce29" fill-rule="evenodd"
        d="M48.89,47.69c-19.049,9.233-30.874,1.509-38.441-3.184	c-0.468-0.296-1.264,0.068-0.573,0.877C12.397,48.496,20.66,56,31.446,56c10.794,0,17.214-5.997,18.017-7.043	C50.26,47.921,49.696,47.347,48.89,47.69L48.89,47.69z M54.241,44.682c-0.512-0.679-3.111-0.804-4.747-0.599	c-1.638,0.2-4.098,1.217-3.885,1.831c0.11,0.23,0.334,0.127,1.459,0.024c1.128-0.115,4.291-0.522,4.949,0.355	c0.663,0.884-1.008,5.09-1.314,5.767c-0.294,0.679,0.113,0.853,0.665,0.402c0.545-0.451,1.535-1.622,2.197-3.276	C54.23,47.519,54.631,45.197,54.241,44.682L54.241,44.682z"
        clip-rule="evenodd"></path>
    <path fill="#9c34c2" fill-rule="evenodd"
        d="M36.081,28.853c0,2.423,0.061,4.441-1.142,6.594	c-0.971,1.748-2.507,2.825-4.225,2.825c-2.345,0-3.711-1.819-3.711-4.503c0-5.299,4.662-6.263,9.078-6.263V28.853z M42.24,44.008	c-0.404,0.367-0.987,0.392-1.443,0.148c-2.026-1.713-2.388-2.51-3.504-4.145c-3.349,3.48-5.72,4.521-10.065,4.521	c-5.135,0-9.139-3.227-9.139-9.689c0-5.045,2.688-8.484,6.509-10.161c3.316-1.488,7.945-1.748,11.482-2.16v-0.806	c0-1.478,0.11-3.227-0.738-4.503c-0.747-1.147-2.174-1.617-3.426-1.617c-2.326,0-4.406,1.215-4.911,3.734	c-0.103,0.557-0.508,1.109-1.057,1.135l-5.927-0.649c-0.498-0.113-1.048-0.524-0.909-1.302C20.477,11.204,26.96,9,32.767,9	c2.973,0,6.853,0.804,9.198,3.095c2.973,2.825,2.688,6.594,2.688,10.695v9.689c0,2.912,1.184,4.19,2.301,5.762	c0.395,0.559,0.482,1.234-0.016,1.652c-1.246,1.057-3.462,3.027-4.681,4.129L42.24,44.008"
        clip-rule="evenodd"></path>
    <path fill="none" stroke="#fff" stroke-linecap="round" stroke-linejoin="round"
        stroke-miterlimit="10" stroke-width="3"
        d="M24.795,14.818c1.384-1.248,3.101-1.965,4.789-2.362" clip-rule="evenodd"></path>
    <path
        d="M46.954,38.241c-1.116-1.572-2.301-2.851-2.301-5.762V23h0c-2.761,0-5,2.239-5,5v4.479 c0,0.563,0.031,1.093,0.087,1.593c0.078,0.696-0.542,1.263-1.222,1.091c-0.264-0.067-0.534-0.112-0.809-0.135 c-1.034-0.089-2.05,0.155-2.925,0.665c-0.682,1.118-1.603,1.929-2.656,2.316c-0.557,0.458-1.061,0.791-1.536,1.004 c-2.162,0.968-3.289,3.282-2.856,5.512c4.024-0.082,6.342-1.173,9.557-4.513c1.116,1.636,1.478,2.432,3.504,4.145 c0.456,0.244,1.039,0.219,1.443-0.148l0.016,0.014c1.22-1.102,3.436-3.071,4.681-4.129C47.436,39.475,47.349,38.8,46.954,38.241z"
        opacity=".15"></path>
    <path fill="#fff"
        d="M37.695,9.721C36.032,9.213,34.282,9,32.767,9c-5.807,0-12.291,2.204-13.656,9.515 c-0.139,0.778,0.411,1.189,0.909,1.302l4.956,0.542c0.101-0.919-0.042-1.819-0.407-2.618C25.769,15.257,28.517,14,32.768,14 C35.282,14,37.343,12.138,37.695,9.721z"
        opacity=".3"></path>
</svg>